<?xml version="1.0" encoding="iso-8859-1"?>
<!-- Generator: Adobe Illustrator 19.0.0, SVG Export Plug-In . SVG Version: 6.00 Build 0)  -->
<svg version="1.1" id="Layer_1" xmlns="http://www.w3.org/2000/svg" xmlns:xlink="http://www.w3.org/1999/xlink" x="0px" y="0px"
	 viewBox="0 0 512 512" style="enable-background:new 0 0 512 512;" xml:space="preserve">
<circle style="fill:#273B7A;" cx="256" cy="256" r="256"/>
<path style="fill:#121149;" d="M511.998,256c0-5.367-0.184-10.688-0.51-15.974L389.634,117.022l-78.145,11.586l-43.998-11.586
	l-34.047,18.087l-7.758,139.421L121.53,427.76l77.971,77.971c18.179,4.094,37.083,6.268,56.498,6.268
	C397.384,512,511.998,397.384,511.998,256z"/>
<path style="fill:#71E2EF;" d="M398.222,263.758c-23.702,0-23.702-20.687-47.404-20.687c-23.702,0-23.702,20.687-47.404,20.687
	c-23.702,0-23.702-20.687-47.404-20.687c-23.704,0-23.704,20.687-47.406,20.687c-23.707,0-23.707-20.687-47.413-20.687
	s-23.709,20.687-47.414,20.687v146.101c0,13.567,10.999,24.566,24.566,24.566h235.313c13.567,0,24.566-10.999,24.566-24.566V263.758
	z"/>
<path style="fill:#38C6D9;" d="M350.818,243.071c-23.702,0-23.702,20.687-47.404,20.687c-23.702,0-23.702-20.687-47.404-20.687
	c-0.796,0-1.562,0.028-2.308,0.072v191.281h119.955c13.567,0,24.566-10.999,24.566-24.566V263.758
	C374.52,263.758,374.52,243.071,350.818,243.071z"/>
<path style="fill:#FEE187;" d="M309.01,193.077h-77.576c-5.236,0-9.481-4.246-9.481-9.481c0-5.236,4.246-9.481,9.481-9.481h77.576
	c5.236,0,9.481,4.246,9.481,9.481C318.492,188.831,314.246,193.077,309.01,193.077z"/>
<path style="fill:#FFC61B;" d="M309.01,174.114h-39.793v18.963h39.793c5.236,0,9.481-4.246,9.481-9.481
	C318.492,178.36,314.246,174.114,309.01,174.114z"/>
<path style="fill:#FEE187;" d="M309.01,237.037h-77.576c-5.236,0-9.481-4.246-9.481-9.481c0-5.236,4.246-9.481,9.481-9.481h77.576
	c5.236,0,9.481,4.246,9.481,9.481C318.492,232.791,314.246,237.037,309.01,237.037z"/>
<g>
	<path style="fill:#FFC61B;" d="M309.01,218.074h-39.793v18.963h39.793c5.236,0,9.481-4.246,9.481-9.481
		C318.492,222.32,314.246,218.074,309.01,218.074z"/>
	<path style="fill:#FFC61B;" d="M227.556,293.926c-5.236,0-9.481-4.246-9.481-9.482v-128c0-28.755,23.393-52.148,52.148-52.148
		s52.148,23.393,52.148,52.148c0,5.236-4.246,9.481-9.481,9.481s-9.481-4.246-9.481-9.481c0-18.298-14.888-33.185-33.185-33.185
		c-18.298,0-33.185,14.888-33.185,33.185v128C237.037,289.68,232.791,293.926,227.556,293.926z"/>
</g>
<path style="fill:#E5AA15;" d="M270.222,104.296c-0.336,0-0.669,0.019-1.005,0.026v18.989c0.336-0.01,0.665-0.052,1.005-0.052
	c18.298,0,33.185,14.888,33.185,33.185c0,5.236,4.246,9.481,9.481,9.481s9.481-4.246,9.481-9.481
	C322.37,127.69,298.977,104.296,270.222,104.296z"/>
<path style="fill:#D48B07;" d="M312.889,293.926c-5.236,0-9.481-4.246-9.481-9.482v-128c0-28.755,23.393-52.148,52.148-52.148
	s52.148,23.393,52.148,52.148c0,5.236-4.246,9.481-9.482,9.481c-5.236,0-9.481-4.246-9.481-9.481
	c0-18.298-14.888-33.185-33.185-33.185c-18.298,0-33.185,14.888-33.185,33.185v128C322.37,289.68,318.124,293.926,312.889,293.926z"
	/>
<g>
</g>
<g>
</g>
<g>
</g>
<g>
</g>
<g>
</g>
<g>
</g>
<g>
</g>
<g>
</g>
<g>
</g>
<g>
</g>
<g>
</g>
<g>
</g>
<g>
</g>
<g>
</g>
<g>
</g>
</svg>
